<svg width="22" height="28" viewBox="0 0 22 28" fill="none" xmlns="http://www.w3.org/2000/svg">
<path d="M5.66665 22H16.3333V19.3333H5.66665V22ZM5.66665 16.6667H16.3333V14H5.66665V16.6667ZM2.99998 27.3333C2.26665 27.3333 1.63887 27.0722 1.11665 26.55C0.594424 26.0278 0.333313 25.4 0.333313 24.6667V3.33332C0.333313 2.59999 0.594424 1.97221 1.11665 1.44999C1.63887 0.927768 2.26665 0.666656 2.99998 0.666656H13.6666L21.6666 8.66666V24.6667C21.6666 25.4 21.4055 26.0278 20.8833 26.55C20.3611 27.0722 19.7333 27.3333 19 27.3333H2.99998ZM12.3333 9.99999V3.33332H2.99998V24.6667H19V9.99999H12.3333Z" fill="#F5F5F5"/>
</svg>
